<svg viewBox="0 0 512 512" xml:space="preserve" xmlns="http://www.w3.org/2000/svg"><path d="M450 12H60c-27.614 0-50 22.386-50 50v390c0 27.614 22.386 50 50 50h390c27.614 0 50-22.386 50-50V62c0-27.614-22.386-50-50-50zM161.946 408.707H96.155V197.052h65.791v211.655zm-33.329-237.625c-20.776 0-34.193-14.715-34.193-32.895 0-18.611 13.851-32.896 35.059-32.896s34.194 14.284 34.626 32.896c0 18.18-13.418 32.895-35.492 32.895zm286.959 237.625h-65.79V291.41c0-27.269-9.522-45.881-33.327-45.881-18.18 0-29.001 12.553-33.762 24.672-1.732 4.328-2.165 10.388-2.165 16.447v122.059h-65.79V264.573c0-26.402-.865-48.477-1.731-67.521h57.134l3.029 29.434h1.3c8.656-13.851 29.864-34.194 65.356-34.194 43.283 0 75.746 29 75.746 91.327v125.088z" fill="#ffffff" class="fill-000000"></path></svg>